<?xml version="1.0" encoding="utf-8"?>
<!-- Generator: Adobe Illustrator 21.1.0, SVG Export Plug-In . SVG Version: 6.00 Build 0)  -->
<svg version="1.1" id="Layer_1" xmlns="http://www.w3.org/2000/svg" xmlns:xlink="http://www.w3.org/1999/xlink" x="0px" y="0px"
	 viewBox="0 0 582.3 232.1" style="enable-background:new 0 0 582.3 232.1;" xml:space="preserve">
<style type="text/css">
	.st0{fill:#FFFFFF;}
</style>
<title>real_rent_a_car</title>
<path class="st0" d="M174.8,163.4c-5-1.5-9.8-3.3-14.5-5.5c-8.2-4-15.6-9.5-21.7-16.2c-3.1-3.4-5.9-7.1-8.8-10.7
	c-0.2-0.2-0.4-0.4-0.7-0.6c0.3,7,2,13.9,5,20.2c-0.9-0.6-1.8-1.2-2.6-1.8C125,144,119.6,138,115.6,131c-2.9-5.2-5.2-10.7-6.9-16.4
	c-2-6.9-3.1-14-3.3-21.2c0-0.6,0-3.8,0.1-5c0.2-5.3,1.1-10.6,2.7-15.7c2.8-8.8,7.5-16.3,15.2-21.7c0.5-0.4,1.1-0.7,1.7-0.9l-1.2,2
	c-2.8,4.5-4.7,9.5-5.6,14.8c-0.4,2.5-0.6,4.9-0.7,7.4c-0.2,7.2,2.6,13.3,7.4,18.5c1.7,1.6,3.5,3.2,5.3,4.7c0.8,0.7,1.3,0.7,2-0.4
	c5.9-9.1,15.1-15.5,25.6-18c0.2,0,0.5-0.1,0.7-0.1l1.6-0.1c-1,0.9-1.8,1.5-2.6,2.2c-4.5,3.8-8.3,8.4-11.4,13.4
	c-1.8,3.2-3,6.7-3.4,10.3c-0.6,4.1-0.7,8.3-0.3,12.4c0.1,1.6,0.4,3.3,0.6,4.9c0.1,0.8,0.5,0.9,1.2,0.9c15-1.9,26.9,3.7,36.4,15.1
	c2.3,2.7,4.1,5.9,5.3,9.3c0.3,0.9,0.7,1,1.4,0.5c4.4-3,8-6.7,10-11.7c0.9-2.2,1.5-4.5,2.4-7.1c0.2,0.7,0.4,1.5,0.5,2.2
	c-0.1,2.6-0.4,5.3-0.6,7.9c-0.1,0.7-0.1,1.5,0.1,2.2c1.9-1.6,3.9-3.1,5.7-4.7c1.1-0.9,2.1-2.1,2.8-3.3c1.4-2.6,1-5.4,0.4-8.1
	c-1.1-4.6-2.9-9-5.5-13c-1.5-2.6-3.6-4.9-6.1-6.4c-0.4-0.2-0.8-0.1-1.1,0.1c-1.8,2.2-4.4,3.3-7,4.3c-3.9,1.6-8,2.8-12,4.4
	c-2.4,1.2-4.6,2.5-6.8,4c-0.4,0.3-0.8,0.6-1.2,0.9c-0.3-3.4,1.6-6.6,4.7-7.9c3.6-1.3,7.3-2.3,10.9-3.6c3.9-1.3,7.9-2.6,10.9-5.6
	c2.9-2.9,4.6-6.9,4.7-11c0-0.6-0.2-1.1-0.7-1.6c-1.9-1.7-3.9-3.4-6-4.9c-1.8-1.1-3.5-2.6-4.8-4.3c-0.4-0.5-0.8-1-1.5-0.4
	c-0.2,0.1-0.5,0.1-0.8,0c-1.5-1-2.9-2-4.7-3.3c2-0.6,3.8-1.1,5.5-1.5c1.1-0.2,2.2-0.3,3.2-0.2c0.5,0.1,1,0.3,1.5,0.6h0.1
	c-0.3,0.4,4,0.2,4.8,0.4c0.5,0.2,1,0.5,1.3,1c0.6,0.8,1.6,1.2,2.6,1c0.4-0.1,0.8,0,1.1,0.2c0.9,0.7,1.5,0.3,2.3-0.1
	c1.2-0.5,2.4-1,3.6-1.4l1.3-0.5l-4.8-4.6c-0.1-0.1-0.3-0.3-0.4-0.4c-1.4-1.3-13.6-11.3-19.1-16l0.3-0.5l8.4,3.5
	c-0.2-0.8-0.4-1.5-0.7-2.2c-1.8-4.2-5-7.6-9-9.8c-0.8-0.5-0.9-0.9-0.7-1.8c0.6-2.9,0.9-5.8,1.4-8.6l-0.3-0.2l-5.2,3.3
	c0-1,0-1.9,0-2.8c0-2.5-0.1-5.1,0-7.6c0.3-5.1-1.8-9.2-5.3-12.7c-4.4-4.1-9.2-7.8-14.3-11c-2.7-1.7-5.4-3.3-8.2-5.1l2.8,0.4
	c4.6,0.6,9.3,1.1,13.9,1.9c4.4,0.7,8.7,1.6,13,2.6c6.3,1.5,12.5,2.9,18.7,4.7c5.6,1.6,11.2,3.4,16.7,5.5c7.5,2.8,14.8,5.9,22.2,9
	c1.7,0.7,3.2,1.6,4.9,2.3c0.6,0.2,1,0.9,0.8,1.5c-0.3,3.4-0.6,6.8-0.9,10.2c-0.3,3-0.5,5.9-0.9,8.9c-0.6,4.4-1.2,8.9-2,13.2
	c-1.4,6.9-2.8,13.9-4.6,20.7c-1.8,6.5-3.9,12.8-6.1,19.1c-2.1,5.7-4.4,11.4-6.9,16.9c-2.1,4.7-4.4,9.4-6.9,13.9
	c-3.6,6.4-7.2,12.7-11.2,18.8c-3.7,5.7-7.8,11.1-11.8,16.7c-0.7,1-1.6,0.7-2.5,0.6c-1.2-0.2-2.4-0.5-3.6-0.7c-1.2-0.4-2-1.5-2.2-2.8
	 M204.4,109.5l0.2-0.3c1.9-2.8,3.9-5.5,5.5-8.4c2.4-3.9,3.5-8.5,3.4-13.1c-0.2-2.5-0.9-4.9-2.3-7.1c-0.2,0.4-0.4,0.8-0.5,1.2
	c-0.9,3.3-3.1,6.2-6,8c-0.9,0.5-1.5,1.5-1.4,2.6c0.1,3.7-1,7.3-3,10.4c-0.2,0.4-0.1,0.8,0.1,1.2
	C201.7,105.8,203.1,107.6,204.4,109.5L204.4,109.5z"/>
<path class="st0" d="M15.6,102.6c-0.3-0.8-0.7-1.6-1-2.4c-1.7-5.2-3.5-10.4-5.1-15.7c-1.2-4.2-2.3-8.5-3.3-12.7
	c-1.1-4.9-2.1-9.9-3-14.9C1.8,48.3,0.8,39.7,0.3,31c-0.1-1-0.1-2-0.3-3c-0.2-0.7,0.2-1.3,0.8-1.5c3.4-1.5,6.6-3.1,10-4.6
	c3.9-1.7,7.8-3.3,11.7-4.7c4.5-1.7,9-3.3,13.6-4.8c3.2-1.1,6.4-2.1,9.7-3c4.9-1.3,9.8-2.7,14.7-3.8c6-1.3,12.1-2.4,18.2-3.6
	c0.1,0,0.2,0,0.2,0c-3,1.3-5.9,2.5-8.9,3.8c-5.8,2.5-11.4,5.6-16.7,9c-7.2,4.5-13.7,10-19.5,16.2c-3.6,3.9-6.6,8.3-9,13
	c-0.1,0.2-0.1,0.4-0.2,0.7c5.5-3.8,11-7.1,17.7-8.6c-8.6,8.8-15.4,19.3-19.8,30.8C18.2,78.2,15.8,90.3,15.6,102.6z"/>
<path class="st0" d="M142.1,199c7,0.4,13.9,0.6,21-0.7c-1.3,1.3-2.4,2.6-3.5,3.6c-10.6,9.6-21.7,18.6-33.4,26.9
	c-1.4,1-2.8,2-4.2,2.9c-0.5,0.4-1.2,0.4-1.6,0c-9.4-6.5-18.6-13.4-27.3-20.8c-0.1-0.1-0.3-0.3-0.4-0.4c6.7,2.8,13.9,4.6,21.2,5.2
	c7.3,0.5,14.7,0.1,21.9-1.3c-6.3-2.2-12.1-5.7-17-10.4c-4.9-4.8-8.7-10.7-10.9-17.1c8.2,5.1,17.3,8.8,26.9,10.7"/>
<path class="st0" d="M35.4,144.4c-1.2-2-2.4-3.9-3.5-5.9c-2.1-3.8-4.2-7.6-6.2-11.4c-0.3-0.6-0.3-1.3-0.1-2
	c2.8-6.8,6.2-13.5,9.9-19.8c6.5-10.9,13.9-20.9,23.4-29.3c2.3-2,4.8-3.8,7.4-5.5c-8.9,10.3-16,21.9-21.1,34.5
	C40,117.5,36.7,130.8,35.4,144.4z"/>
<path class="st0" d="M137.3,56.7c9.3-10.1,26.2-8.3,32.9-2.7l-4.5,3.8c4.1,2.5,7.7,5.8,10.6,9.6C164.3,60.9,151.1,57.9,137.3,56.7z"
	/>
<path class="st0" d="M204.5,109.6c-1.4-2-2.8-3.8-4.1-5.7c-0.2-0.4-0.2-0.8-0.1-1.2c2-3.1,3.1-6.7,3-10.4c-0.1-1,0.4-2,1.4-2.6
	c2.9-1.8,5.1-4.7,6-8c0.2-0.4,0.3-0.8,0.5-1.2c1.4,2.1,2.1,4.5,2.3,7.1c0.2,4.6-0.9,9.2-3.3,13.2c-1.6,2.9-3.7,5.6-5.5,8.4
	L204.5,109.6z"/>
<path class="st0" d="M68.2,188.3c-1.6-1.7-3.2-3.3-4.7-5.1c-2.9-3.2-5.7-6.5-8.5-9.9c-0.4-0.6-0.6-1.3-0.5-2
	c1.3-7.3,3.2-14.5,5.5-21.5c4-12,9.1-23.4,16.7-33.6c1.9-2.4,3.9-4.8,6-7c-6.5,11.9-11,24.9-13.3,38.3C67,161,66.6,174.7,68.2,188.3
	z"/>
<path class="st0" d="M284.3,153.6h12.1c1.9,0,3.7,0.2,5.5,0.7c1.4,0.4,2.8,1,3.9,1.9c1,0.8,1.8,1.7,2.4,2.9c0.5,1.1,0.8,2.4,0.8,3.6
	c0,1-0.2,2.1-0.6,3c-0.4,1-1,1.8-1.7,2.6c-0.8,0.8-1.7,1.5-2.7,2c-1.1,0.6-2.3,1-3.5,1.3l12.7,16.9h-6.8L294.3,172h-4.1v16.4h-5.9
	L284.3,153.6z M290.1,170.3h3.4c1.2,0,2.5-0.2,3.6-0.5c1-0.3,2-0.8,2.9-1.5c1.7-1.3,2.6-3.3,2.6-5.4c0-1-0.2-2-0.5-2.9
	c-0.3-0.8-0.9-1.6-1.5-2.2c-0.7-0.6-1.5-1.1-2.3-1.5c-1-0.4-2-0.5-3-0.5h-5.1L290.1,170.3z"/>
<path class="st0" d="M339.4,153.6v2.2h-18.4v12.5h12.3v2.2h-12.3v15.6h18.4v2.2h-24.2v-34.8H339.4z"/>
<path class="st0" d="M343.6,153.6h3.3l22.8,25.4h0.2v-25.4h2.6v35.7h-1.4l-24.8-28.3h-0.2v27.5h-2.6L343.6,153.6z"/>
<path class="st0" d="M406.7,153.6v2.2h-12.6v32.6h-5.9v-32.6h-12.6v-2.2H406.7z"/>
<path class="st0" d="M434,152.8l16.4,35.6h-6l-5.3-11.6h-14.9l-5.5,11.6h-2.9l16.8-35.6H434z M425.2,174.5h12.8l-6.3-13.8
	L425.2,174.5z"/>
<path class="st0" d="M470.7,171.1c0,2.2,0.3,4.5,1.1,6.6c0.7,1.8,1.7,3.5,3,4.9c1.3,1.3,2.8,2.4,4.6,3.1c1.8,0.7,3.8,1.1,5.7,1.1
	c1.2,0,2.4-0.2,3.5-0.7c1.1-0.5,2.2-1.1,3.2-1.9c1-0.8,1.8-1.6,2.6-2.6c0.7-0.9,1.4-1.9,1.9-2.9l2.5,1.6c-0.7,1.2-1.6,2.3-2.5,3.4
	c-1,1.1-2.1,2-3.3,2.8c-1.4,0.9-2.8,1.5-4.4,2c-1.8,0.5-3.6,0.8-5.4,0.8c-1.8,0-3.7-0.2-5.4-0.7c-1.6-0.4-3.2-1-4.7-1.9
	c-1.4-0.8-2.7-1.7-3.8-2.9c-1.1-1.1-2.1-2.3-2.9-3.7c-1.6-2.8-2.4-5.9-2.4-9.1c0-1.6,0.2-3.2,0.6-4.8c0.4-1.5,1-3,1.8-4.4
	c0.8-1.4,1.8-2.6,2.9-3.7c1.2-1.1,2.5-2.1,3.9-2.9c1.5-0.8,3.1-1.5,4.7-1.9c1.8-0.5,3.6-0.7,5.5-0.7c1.7,0,3.5,0.2,5.1,0.8
	c1.5,0.5,2.9,1.2,4.3,2c1.3,0.8,2.4,1.8,3.4,2.9c1,1,1.8,2.2,2.6,3.4l-2.5,1.7c-1.1-2.4-2.8-4.5-4.9-6.2c-1.8-1.3-4-2-6.2-2
	c-1.9,0-3.9,0.4-5.6,1.1c-1.7,0.7-3.3,1.8-4.6,3.1c-1.3,1.4-2.4,3.1-3.1,5C471,166.6,470.7,168.9,470.7,171.1z"/>
<path class="st0" d="M518.3,152.8l16.4,35.6h-6l-5.3-11.6h-14.9l-5.5,11.6H500l16.8-35.6H518.3z M509.5,174.5h12.8l-6.3-13.8
	L509.5,174.5z"/>
<path class="st0" d="M536.8,153.6h12.1c1.9,0,3.7,0.2,5.5,0.7c1.4,0.4,2.8,1,3.9,1.9c1,0.8,1.8,1.7,2.4,2.9c0.5,1.1,0.8,2.4,0.8,3.6
	c0,1-0.2,2.1-0.6,3c-0.4,1-1,1.8-1.7,2.6c-0.8,0.8-1.7,1.5-2.7,2c-1.1,0.6-2.3,1-3.5,1.3l12.7,16.9h-6.8L546.8,172h-4.1v16.4h-5.9
	V153.6z M542.7,170.3h3.4c1.2,0,2.5-0.2,3.6-0.5c1-0.3,2-0.8,2.9-1.5c1.7-1.3,2.6-3.3,2.6-5.4c0-1-0.2-2-0.5-2.9
	c-0.3-0.8-0.9-1.6-1.5-2.2c-0.7-0.6-1.5-1.1-2.3-1.5c-1-0.4-2-0.5-3-0.5h-5.2L542.7,170.3z"/>
<path class="st0" d="M360.2,135.6h-19.3c-3.4-2.4-8.6-8.7-15.7-18.8c-2.3-3.2-4.6-6.3-7-9.3c-1.5-2-3.2-3.8-5-5.4
	c-1.3-0.8-2.8-1.1-4.3-1h-2.9v16c-0.1,3.7,0.1,7.4,0.4,11.1c0.1,1.5,0.9,2.9,2.1,3.9c1.1,0.8,3.3,1.3,6.6,1.3h3.4v2.4h-34.3v-2.4
	h2.3c3.1,0,5.2-0.4,6.4-1.2c1.2-0.8,2-2.2,2.2-3.6c0.4-3.8,0.6-7.6,0.5-11.4V81.8c0.1-3.7-0.1-7.3-0.5-11c-0.2-1.4-0.9-2.7-2.1-3.4
	c-1.1-0.7-3.5-1-7.1-1h-1.2V64l10.2-0.5c6.8-0.3,12.2-0.5,16.2-0.5c6.8,0,12.4,0.6,16.7,1.9c4,1.1,7.6,3.2,10.4,6.2
	c2.6,2.8,4.1,6.5,4,10.3c0.1,4.6-1.8,8.9-5.2,12c-3.5,3.3-8.5,5.4-15.2,6.2c3,1.4,7.8,6.7,14.5,15.6c5.4,7.3,9.7,12.1,12.8,14.3
	c3.2,2.3,7.1,3.5,11,3.6L360.2,135.6z M306.1,98.6c2.7-0.1,5.4-0.2,8.2-0.3c2.5-0.1,4.9-0.5,7.3-1.2c3.8-1,6.9-3.8,8.1-7.6
	c0.8-2.3,1.2-4.8,1.1-7.3c0-5-1.3-9.1-3.8-12.1c-2.5-3-8-4.5-16.5-4.5c-1.3,0-2.8,0.1-4.5,0.2L306.1,98.6z"/>
<path class="st0" d="M422.2,113.3h2.5l-1.5,22.3h-59.3v-2.4h1.5c3.6,0,5.8-0.5,6.9-1.4c1-1,1.8-2.2,2-3.6c0.4-3.7,0.5-7.4,0.4-11.2
	V81.8c0.1-3.6-0.1-7.2-0.5-10.8c-0.1-1.4-0.9-2.8-2.1-3.6c-1.1-0.7-3.3-1-6.8-1V64h51.2l1.7,17.8h-2.5c-1.1-5-2.5-8.5-4.1-10.6
	c-1.4-2-3.5-3.4-5.8-4c-3.6-0.7-7.2-0.9-10.9-0.8h-9.9v30.1h7.6c3.5,0,5.9-0.3,7.3-0.9c1.3-0.5,2.3-1.5,2.8-2.7
	c0.4-1.2,0.7-3.6,0.7-7.1h2.5v24.5h-2.5c0-4-0.3-6.7-1-8c-0.6-1.3-1.6-2.2-2.9-2.6c-2.1-0.5-4.3-0.7-6.5-0.6h-7.9v17
	c0,8.5,0.5,13.5,1.6,15c1.1,1.5,4,2.3,8.8,2.2h5.3c3.2,0.1,6.3-0.4,9.3-1.4c2.4-1,4.7-3,7-6C419.2,122.8,420.9,118.6,422.2,113.3z"
	/>
<path class="st0" d="M474.7,109.2h-27.2l-1.9,4.5c-2.7,6.6-4.1,10.9-4.1,12.9c-0.1,1.9,0.7,3.7,2.2,4.9c1.6,1.2,3.6,1.8,5.6,1.7v2.4
	h-21.3v-2.4c3.2-0.5,5.5-1.6,7.1-3.4c1.6-1.7,3.4-5.4,5.6-11c0.2-0.5,1-2.6,2.5-6.1L464.1,63h2.1l23.9,56.9l3.3,7.5
	c0.6,1.6,1.7,2.9,3,4c1.7,1.1,3.6,1.7,5.6,1.8v2.4h-28.1v-2.4c3.5,0,5.8-0.3,7-0.8c1.2-0.5,1.9-1.7,1.8-3c0-0.8-0.8-3.1-2.4-6.9
	L474.7,109.2z M473.8,106.8l-12.7-30.5l-12.6,30.5H473.8z"/>
<path class="st0" d="M565.7,114.5l-0.5,21.1h-60.9v-2.4h2.1c3.1,0,5.2-0.4,6.4-1.2c1.2-0.8,2-2.2,2.3-3.6c0.3-1.6,0.5-5.5,0.5-11.4
	V81.8c0.1-3.7-0.1-7.4-0.5-11c-0.2-1.4-0.9-2.6-2.1-3.4c-1.1-0.7-3.4-1-7.1-1h-1.6V64h34.4v2.4h-3.2c-3.5,0-5.8,0.3-6.9,0.9
	c-1.2,0.7-2,1.9-2.2,3.2c-0.4,1.6-0.5,5.4-0.5,11.3v37.5c-0.1,3.2,0,6.5,0.4,9.7c0.3,1.3,1.1,2.4,2.3,3c1.2,0.7,3.9,1.1,8,1.1h5.4
	c4.4,0,7.7-0.4,9.8-1.2c2.5-1.1,4.6-2.8,6.1-5.1c1.9-2.6,3.7-6.7,5.3-12.4H565.7z"/>
<rect x="267.7" y="206.9" class="st0" width="314.7" height="5.8"/>
</svg>
