<svg id="Layer_1" data-name="Layer 1" xmlns="http://www.w3.org/2000/svg" viewBox="0 0 582.35 232.06"><defs><style>.cls-1,.cls-4{fill:#f68835;}.cls-1,.cls-2{fill-rule:evenodd;}.cls-2{fill:#fff;}.cls-3{fill:#333232;}</style></defs><title>real_rent_a_car</title><path class="cls-1" d="M176,171.37a104.31,104.31,0,0,1-14.48-5.54,71.32,71.32,0,0,1-21.73-16.22c-3.1-3.4-5.86-7.1-8.78-10.66a8,8,0,0,0-.66-.6,52.43,52.43,0,0,0,5,20.18c-.88-.6-1.79-1.17-2.65-1.8A55.62,55.62,0,0,1,116.81,139a77,77,0,0,1-6.89-16.4,83.93,83.93,0,0,1-3.27-21.19c0-.63,0-3.79.09-5a61.61,61.61,0,0,1,2.67-15.66c2.82-8.75,7.48-16.27,15.16-21.65a5.73,5.73,0,0,1,1.67-.87l-1.23,2a39.11,39.11,0,0,0-5.56,14.79,66.53,66.53,0,0,0-.71,7.43c-.23,7.22,2.56,13.32,7.41,18.5a67.8,67.8,0,0,0,5.32,4.67c.83.72,1.34.72,2-.38a42.33,42.33,0,0,1,25.64-18,4.4,4.4,0,0,1,.72-.09l1.64-.08c-1,.87-1.81,1.51-2.56,2.19a55.76,55.76,0,0,0-11.39,13.44A28.44,28.44,0,0,0,144.09,113a53,53,0,0,0-.3,12.42c.14,1.64.41,3.28.59,4.92.09.81.51.94,1.24.85,15-1.91,26.94,3.67,36.42,15.08a29.89,29.89,0,0,1,5.26,9.26c.3.86.71,1,1.42.5,4.35-3,8-6.66,10-11.71.86-2.2,1.51-4.48,2.38-7.12a10,10,0,0,1,.48,2.25c-.13,2.65-.36,5.3-.56,7.95a6.52,6.52,0,0,0,.05,2.17c1.9-1.56,3.86-3.06,5.68-4.7a13.13,13.13,0,0,0,2.84-3.34c1.39-2.6,1-5.44.35-8.15a43.34,43.34,0,0,0-5.47-13,17.52,17.52,0,0,0-6.14-6.45,1.22,1.22,0,0,0-1.15.13c-1.84,2.23-4.39,3.34-7,4.35-3.95,1.56-8,2.76-12,4.43a56.61,56.61,0,0,0-6.81,4,12.69,12.69,0,0,0-1.16.91,7.81,7.81,0,0,1,4.72-7.92c3.59-1.27,7.27-2.32,10.88-3.56,3.9-1.34,7.87-2.57,10.9-5.63a16.19,16.19,0,0,0,4.68-11,2.2,2.2,0,0,0-.67-1.55,67.82,67.82,0,0,0-6-4.87,17.59,17.59,0,0,1-4.78-4.33c-.36-.53-.76-1-1.47-.38a.82.82,0,0,1-.76,0c-1.48-1-2.93-2-4.72-3.31,2-.58,3.75-1.14,5.51-1.54a13.07,13.07,0,0,1,3.25-.25,4.27,4.27,0,0,1,1.49.63l.06,0c-.28.43,4,.2,4.76.37a2.91,2.91,0,0,1,1.32,1,2.45,2.45,0,0,0,2.55,1,1.49,1.49,0,0,1,1.14.17c.86.72,1.51.29,2.32-.13a34.45,34.45,0,0,1,3.57-1.4l1.34-.48-4.78-4.62c-.14-.14-.29-.27-.44-.4-1.43-1.3-13.6-11.34-19.06-16l.3-.5,8.37,3.48a20.71,20.71,0,0,0-.69-2.22,20.48,20.48,0,0,0-9-9.82c-.83-.47-.9-.9-.72-1.8.56-2.86.95-5.76,1.4-8.64l-.33-.17-5.2,3.31c0-1,0-1.92,0-2.83,0-2.54-.11-5.09,0-7.63.27-5.11-1.75-9.2-5.3-12.71a88.39,88.39,0,0,0-14.27-11c-2.67-1.74-5.45-3.3-8.17-5.12l2.77.39c4.63.63,9.28,1.15,13.89,1.92q6.55,1.09,13,2.59c6.26,1.46,12.53,2.94,18.7,4.71,5.63,1.62,11.21,3.44,16.69,5.51,7.46,2.82,14.81,5.94,22.19,9,1.66.68,3.24,1.57,4.88,2.31a1.27,1.27,0,0,1,.84,1.49c-.32,3.41-.56,6.83-.87,10.24-.27,3-.49,5.94-.89,8.89-.6,4.43-1.17,8.87-2,13.25-1.4,6.93-2.81,13.88-4.65,20.7-1.75,6.47-3.88,12.84-6.15,19.14-2.06,5.73-4.4,11.38-6.87,16.95-2.1,4.71-4.39,9.36-6.91,13.86-3.56,6.36-7.22,12.69-11.17,18.81-3.69,5.71-7.84,11.12-11.75,16.69-.71,1-1.59.74-2.47.61-1.19-.18-2.37-.46-3.56-.68a3.4,3.4,0,0,1-2.18-2.79m19.68-54,.22-.33c1.86-2.79,3.93-5.46,5.53-8.39A23.62,23.62,0,0,0,214.7,95.7a14.75,14.75,0,0,0-2.3-7.06,12.11,12.11,0,0,0-.52,1.16,13.62,13.62,0,0,1-6,8,2.62,2.62,0,0,0-1.36,2.55,17.91,17.91,0,0,1-3,10.36,1.31,1.31,0,0,0,.08,1.18C202.86,113.75,204.24,115.59,205.68,117.58Z" transform="translate(-1.16 -8)"/><path class="cls-1" d="M16.77,110.6c-.33-.79-.71-1.57-1-2.38-1.73-5.23-3.53-10.43-5.1-15.7-1.25-4.2-2.31-8.46-3.26-12.73-1.1-4.95-2.08-9.92-3-14.91A227.19,227.19,0,0,1,1.47,39c-.06-1-.15-2-.29-3A1.25,1.25,0,0,1,2,34.46C5.36,33,8.64,31.34,12,29.9c3.87-1.66,7.77-3.26,11.71-4.74,4.5-1.7,9-3.28,13.61-4.83,3.19-1.08,6.42-2.09,9.67-3,4.88-1.34,9.77-2.68,14.71-3.78,6-1.34,12.14-2.42,18.22-3.61a.72.72,0,0,1,.23,0c-3,1.26-5.91,2.49-8.86,3.76a117.38,117.38,0,0,0-16.73,9A95.59,95.59,0,0,0,35.07,38.9a58.69,58.69,0,0,0-9,13,5.18,5.18,0,0,0-.17.68c5.48-3.84,11-7.09,17.71-8.58A90.64,90.64,0,0,0,23.8,74.79,102.09,102.09,0,0,0,16.77,110.6Z" transform="translate(-1.16 -8)"/><path class="cls-1" d="M143.22,207c7,.36,13.91.62,21-.71-1.3,1.34-2.36,2.55-3.54,3.63a356.59,356.59,0,0,1-33.37,26.88c-1.4,1-2.82,2-4.24,2.95a1.25,1.25,0,0,1-1.63,0C112,233.25,102.88,226.35,94.1,219a4.82,4.82,0,0,1-.39-.42,70.54,70.54,0,0,0,21.16,5.25,84.86,84.86,0,0,0,21.87-1.31,46.55,46.55,0,0,1-17-10.38A44.09,44.09,0,0,1,108.81,195a81.91,81.91,0,0,0,26.86,10.71" transform="translate(-1.16 -8)"/><path class="cls-1" d="M36.54,152.44c-1.18-2-2.4-3.93-3.53-5.94-2.11-3.78-4.2-7.58-6.21-11.42a2.67,2.67,0,0,1-.09-2,158.44,158.44,0,0,1,9.94-19.85c6.45-10.87,13.9-20.94,23.41-29.34a81.33,81.33,0,0,1,7.36-5.54,123,123,0,0,0-21.1,34.5A143.21,143.21,0,0,0,36.54,152.44Z" transform="translate(-1.16 -8)"/><path class="cls-1" d="M138.49,64.74c9.29-10.1,26.16-8.26,32.95-2.67l-4.51,3.8a39.12,39.12,0,0,1,10.65,9.64C165.42,68.89,152.29,65.89,138.49,64.74Z" transform="translate(-1.16 -8)"/><path class="cls-2" d="M205.68,117.58c-1.44-2-2.82-3.83-4.12-5.73a1.31,1.31,0,0,1-.08-1.18,17.91,17.91,0,0,0,3-10.36,2.62,2.62,0,0,1,1.36-2.55,13.62,13.62,0,0,0,6-8,12.11,12.11,0,0,1,.52-1.16,14.75,14.75,0,0,1,2.3,7.06,23.62,23.62,0,0,1-3.26,13.16c-1.61,2.93-3.67,5.6-5.53,8.39Z" transform="translate(-1.16 -8)"/><path class="cls-1" d="M69.34,196.28c-1.57-1.69-3.18-3.33-4.71-5.06-2.86-3.25-5.71-6.52-8.48-9.85a2.67,2.67,0,0,1-.51-2,158.51,158.51,0,0,1,5.52-21.51c4-12,9.15-23.4,16.68-33.63a81.47,81.47,0,0,1,6-7A123,123,0,0,0,70.53,155.5,143.22,143.22,0,0,0,69.34,196.28Z" transform="translate(-1.16 -8)"/><path class="cls-3" d="M285.46,161.57h12.06a20.14,20.14,0,0,1,5.52.68,11.63,11.63,0,0,1,3.94,1.89,8,8,0,0,1,2.38,2.88,8.29,8.29,0,0,1,.8,3.64,7.56,7.56,0,0,1-.61,3,8.31,8.31,0,0,1-1.74,2.55,11.08,11.08,0,0,1-2.7,2,14.47,14.47,0,0,1-3.48,1.29l12.68,16.91h-6.78L295.42,180h-4.1v16.38h-5.85Zm5.85,16.71h3.38a12,12,0,0,0,3.64-.52,9,9,0,0,0,2.89-1.49,6.69,6.69,0,0,0,2.6-5.42,7.34,7.34,0,0,0-.55-2.86,6.64,6.64,0,0,0-1.53-2.25,6.94,6.94,0,0,0-2.33-1.46,8.07,8.07,0,0,0-3-.53h-5.15Z" transform="translate(-1.16 -8)"/><path class="cls-3" d="M340.59,161.57v2.25H322.23v12.46h12.28v2.25H322.23v15.63h18.36v2.25H316.37V161.57Z" transform="translate(-1.16 -8)"/><path class="cls-3" d="M344.78,161.57h3.28L370.9,187h.23V161.57h2.58v35.67h-1.35L347.61,168.9h-.2v27.52h-2.63Z" transform="translate(-1.16 -8)"/><path class="cls-3" d="M407.87,161.57v2.25H395.26v32.59h-5.85V163.82H376.77v-2.25Z" transform="translate(-1.16 -8)"/><path class="cls-3" d="M435.17,160.77l16.41,35.64h-6l-5.33-11.63H425.37l-5.5,11.63h-2.93l16.78-35.64Zm-8.78,21.76h12.83l-6.33-13.78Z" transform="translate(-1.16 -8)"/><path class="cls-3" d="M471.83,179.11a18.45,18.45,0,0,0,1.1,6.58,14.39,14.39,0,0,0,3,4.92,12.92,12.92,0,0,0,4.56,3.08,15.15,15.15,0,0,0,5.72,1.06,9,9,0,0,0,3.53-.71,13.87,13.87,0,0,0,3.16-1.85,15.59,15.59,0,0,0,2.61-2.58,17,17,0,0,0,1.9-2.91l2.45,1.58a23.23,23.23,0,0,1-2.54,3.38A16.64,16.64,0,0,1,494,194.5a17.67,17.67,0,0,1-4.35,2,18.32,18.32,0,0,1-5.43.75,21.52,21.52,0,0,1-5.43-.66,19.91,19.91,0,0,1-4.69-1.85,17.37,17.37,0,0,1-3.83-2.86,17.54,17.54,0,0,1-2.85-3.69,18.11,18.11,0,0,1-2.41-9.07,17.84,17.84,0,0,1,.64-4.76,18.23,18.23,0,0,1,1.83-4.35,17.88,17.88,0,0,1,2.91-3.74,18.18,18.18,0,0,1,3.89-2.91,20,20,0,0,1,4.74-1.89,21.63,21.63,0,0,1,5.5-.68,16.67,16.67,0,0,1,5.12.75,18.27,18.27,0,0,1,4.28,2,17.39,17.39,0,0,1,3.44,2.86,21.87,21.87,0,0,1,2.58,3.38l-2.53,1.7a17.58,17.58,0,0,0-4.9-6.2,10.24,10.24,0,0,0-6.2-2,14.48,14.48,0,0,0-5.65,1.1,13.41,13.41,0,0,0-4.58,3.15,14.86,14.86,0,0,0-3.08,5A18.29,18.29,0,0,0,471.83,179.11Z" transform="translate(-1.16 -8)"/><path class="cls-3" d="M519.43,160.77l16.41,35.64h-6l-5.33-11.63H509.63l-5.5,11.63H501.2L518,160.77Zm-8.78,21.76h12.83l-6.33-13.78Z" transform="translate(-1.16 -8)"/><path class="cls-3" d="M538,161.57H550.1a20.15,20.15,0,0,1,5.52.68,11.63,11.63,0,0,1,3.94,1.89,8,8,0,0,1,2.38,2.88,8.28,8.28,0,0,1,.8,3.64,7.56,7.56,0,0,1-.61,3,8.3,8.3,0,0,1-1.74,2.55,11.07,11.07,0,0,1-2.7,2,14.49,14.49,0,0,1-3.48,1.29l12.68,16.91H560.1L548,180h-4.1v16.38H538Zm5.85,16.71h3.38a12,12,0,0,0,3.64-.52,9,9,0,0,0,2.89-1.49,6.69,6.69,0,0,0,2.6-5.42,7.34,7.34,0,0,0-.55-2.86,6.64,6.64,0,0,0-1.53-2.25,6.93,6.93,0,0,0-2.33-1.46,8.07,8.07,0,0,0-3-.53h-5.15Z" transform="translate(-1.16 -8)"/><path class="cls-3" d="M361.36,143.6H342.08Q337,140,326.39,124.8q-3.38-4.86-7-9.32a36.6,36.6,0,0,0-5-5.44,7.46,7.46,0,0,0-4.28-1h-2.85V125a94.43,94.43,0,0,0,.4,11.07,5.62,5.62,0,0,0,2.11,3.88q1.72,1.27,6.58,1.27h3.43v2.43H285.46v-2.43h2.32q4.6,0,6.36-1.16a5.3,5.3,0,0,0,2.24-3.62,80.83,80.83,0,0,0,.48-11.44V89.84a76.81,76.81,0,0,0-.48-11,4.73,4.73,0,0,0-2.11-3.43q-1.64-1-7.08-1H286V72l10.25-.53Q306.48,71,312.5,71q10.25,0,16.66,1.9a22.29,22.29,0,0,1,10.38,6.23,14.81,14.81,0,0,1,4,10.35,16,16,0,0,1-5.18,12q-5.18,5-15.21,6.18,4.49,2.17,14.47,15.63,8.13,10.93,12.78,14.31a19.3,19.3,0,0,0,11,3.59Zm-54.14-37q4-.11,8.19-.32a30.55,30.55,0,0,0,7.34-1.16,11.49,11.49,0,0,0,8.08-7.55,20.89,20.89,0,0,0,1.11-7.29q0-7.55-3.78-12.1t-16.45-4.54q-2,0-4.49.21Z" transform="translate(-1.16 -8)"/><path class="cls-3" d="M423.32,121.32h2.54l-1.53,22.29H365v-2.43h1.48q5.33,0,6.89-1.43a6.41,6.41,0,0,0,2-3.62,83.76,83.76,0,0,0,.42-11.17V89.84a79.77,79.77,0,0,0-.45-10.78,5.05,5.05,0,0,0-2.06-3.62q-1.61-1-6.79-1V72h51.18l1.69,17.85h-2.48q-1.69-7.5-4.15-10.64a10.48,10.48,0,0,0-5.84-4A51.26,51.26,0,0,0,396,74.41h-9.93v30.05h7.61q5.23,0,7.32-.9a4.7,4.7,0,0,0,2.75-2.72q.66-1.82.66-7.1h2.48v24.51h-2.48q0-6-1-8a4.85,4.85,0,0,0-2.93-2.64,24.34,24.34,0,0,0-6.52-.61h-7.87v17q0,12.73,1.64,15t8.82,2.25h5.33a25.35,25.35,0,0,0,9.3-1.45q3.64-1.45,6.95-6T423.32,121.32Z" transform="translate(-1.16 -8)"/><path class="cls-3" d="M475.87,117.2h-27.2l-1.85,4.54q-4.12,9.88-4.12,12.89a5.75,5.75,0,0,0,2.19,4.89,9,9,0,0,0,5.63,1.66v2.43H429.23v-2.43q4.75-.74,7.08-3.35t5.6-11q.26-.79,2.53-6.13L465.26,71h2.06l23.93,56.89,3.27,7.5a10,10,0,0,0,3,4,10.91,10.91,0,0,0,5.63,1.82v2.43H475v-2.43q5.18,0,7-.77a3,3,0,0,0,1.82-3q0-1.16-2.43-6.92Zm-.9-2.38L462.3,84.29l-12.62,30.53Z" transform="translate(-1.16 -8)"/><path class="cls-3" d="M566.88,122.53l-.53,21.07H505.5v-2.43h2.11q4.6,0,6.37-1.16a5.39,5.39,0,0,0,2.27-3.62q.5-2.46.5-11.44V89.84a73,73,0,0,0-.5-11,4.84,4.84,0,0,0-2.11-3.43q-1.61-1-7.05-1H505.5V72h34.39v2.43h-3.17q-5.28,0-6.92.87a4.6,4.6,0,0,0-2.19,3.25q-.55,2.38-.55,11.3v37.5a64,64,0,0,0,.42,9.72,4.51,4.51,0,0,0,2.3,3q1.87,1.08,8.05,1.08h5.44q6.6,0,9.8-1.16a13.71,13.71,0,0,0,6.07-5.07Q562,131,564.4,122.53Z" transform="translate(-1.16 -8)"/><rect class="cls-4" x="267.67" y="206.9" width="314.68" height="5.75"/></svg>